<?xml version="1.0" encoding="utf-8"?>
<!-- Generator: Adobe Illustrator 25.0.1, SVG Export Plug-In . SVG Version: 6.00 Build 0)  -->
<svg version="1.1" id="Layer_1" xmlns="http://www.w3.org/2000/svg" xmlns:xlink="http://www.w3.org/1999/xlink" x="0px" y="0px"
	 viewBox="0 0 595.3 186.4" style="enable-background:new 0 0 595.3 186.4;" xml:space="preserve">
<style type="text/css">
	.st0{fill:#FFFFFF;}
</style>
<path class="st0" d="M109.9,90.1c8.3-3.3,14.9-8.4,19.6-15.2c4.7-6.8,7.1-14.9,7.1-24.2c0-8.8-2.1-16.6-6.4-23.4
	c-4.2-6.8-10.3-12.1-18-15.9c-7.8-3.9-16.6-5.8-26.5-5.8H8v171.2h76.4c11,0,20.7-1.8,29-5.4c8.3-3.6,14.8-8.9,19.3-15.8
	c4.6-6.9,6.8-15.1,6.8-24.5c0-10.2-2.6-18.9-7.9-26.2C126.4,97.8,119.2,92.8,109.9,90.1z M44.8,36.1h30.4c7.1,0,12.6,1.8,16.6,5.3
	s6.1,8.4,6.2,14.5c0,6.4-2.1,11.5-6.2,15.1c-4.2,3.6-9.9,5.4-17.3,5.4H44.8V36.1z M95.3,141c-4.1,3.7-10,5.5-17.7,5.5H44.8v-41.3h33
	c7.4,0,13.2,1.8,17.3,5.4c4.2,3.6,6.2,8.6,6.2,15.1C101.4,132.2,99.4,137.3,95.3,141z M254.6,64c-9.7-5.2-20.9-7.8-33.6-7.8
	c-12.6,0-23.7,2.6-33.3,7.8c-9.6,5.2-17,12.5-22.3,21.9c-5.3,9.4-7.9,20.3-7.9,32.5c0,12.1,2.6,22.9,7.9,32.3
	c5.3,9.4,12.7,16.8,22.3,22.1c9.6,5.3,20.7,7.9,33.3,7.9c12.7,0,23.9-2.6,33.5-7.9c9.6-5.3,17-12.6,22.3-21.9
	c5.3-9.4,7.9-20.2,7.9-32.4s-2.6-23.1-7.8-32.5C271.7,76.5,264.3,69.2,254.6,64z M244,134.1c-2.1,4.5-5.2,7.9-9.2,10.3
	c-4,2.4-8.6,3.5-13.8,3.5c-5.3,0-10-1.3-13.9-3.8c-3.9-2.5-6.9-6-9-10.4c-2-4.4-3.1-9.5-3.1-15.3c0-5.8,1.1-11,3.2-15.6
	c2.1-4.6,5.1-8.1,9.1-10.5c3.9-2.4,8.5-3.7,13.7-3.7c5.5,0,10.2,1.3,14,3.8c3.9,2.5,6.8,6,9,10.5c2.1,4.5,3.2,9.6,3.2,15.4
	C247.2,124.4,246.1,129.7,244,134.1z M368.6,57.6c-5.7,0-10.8,1.4-15.6,4.2c-4.7,2.8-8.2,6.7-10.4,11.6l-1.4-13.2h-32.3v116.8h35.6
	v-58c0-8.6,2.1-15.4,6.2-20.4c4.2-5,10.4-7.4,18.8-7.4c4.2,0,7.6,0.4,10.1,1.2V59.5c-1.3-0.6-2.8-1.1-4.6-1.4
	C373.3,57.8,371.1,57.6,368.6,57.6z M489.7,62.1c-6.4-3.6-13.9-5.4-22.5-5.4c-7.9,0-15,1.5-21.5,4.6c-6.4,3.1-10.8,7.1-13.2,12.1
	l-2.6-13.2h-31.1v116.8h35.6V113c0-7.4,1.9-13.3,5.7-17.8c3.8-4.5,8.9-6.7,15.3-6.7c5.8,0,10.3,1.8,13.4,5.5
	c3.1,3.7,4.7,9.2,4.7,16.4v66.5h35.9v-75.2c0-9.3-1.7-17.3-5.1-24.1C501,70.9,496.1,65.7,489.7,62.1z M551.8,23.8h-13.6v34.4h13.6
	c5.3,0,9.5-1.5,12.6-4.4c3.1-2.9,4.7-7.2,4.7-12.8c0-5.3-1.5-9.6-4.4-12.6C561.7,25.3,557.4,23.8,551.8,23.8z M557.8,47.8
	c-1.4,1.7-3.5,2.5-6.2,2.5h-4.7V31.8h4.7c2.6,0,4.6,0.8,6.1,2.4c1.5,1.6,2.2,3.9,2.2,6.9C559.9,43.9,559.2,46.1,557.8,47.8z
	 M582.4,22.6c-3.3-5.4-7.7-9.5-13.2-12.5c-5.5-3-11.6-4.4-18.3-4.4c-6.7,0-12.9,1.5-18.4,4.4c-5.6,3-10,7.1-13.3,12.5
	c-3.3,5.4-4.9,11.5-4.9,18.4c0,6.9,1.6,13,4.9,18.4c3.3,5.4,7.7,9.6,13.3,12.5c5.6,3,11.7,4.5,18.4,4.5c6.6,0,12.6-1.5,18.2-4.5
	c5.6-3,10-7.2,13.2-12.5c3.3-5.4,4.9-11.5,4.9-18.4C587.3,34.1,585.7,28,582.4,22.6z M575.2,55.6c-2.5,4.2-5.8,7.5-10.1,9.8
	c-4.3,2.3-9.1,3.5-14.5,3.5c-5.3,0-10.1-1.2-14.3-3.5c-4.2-2.3-7.6-5.6-10-9.8c-2.4-4.2-3.6-9-3.6-14.4c0-5.5,1.2-10.3,3.7-14.6
	s5.8-7.5,10.1-9.9c4.3-2.3,9.1-3.5,14.3-3.5c5.3,0,10.1,1.2,14.3,3.5c4.3,2.3,7.6,5.6,10.1,9.8c2.5,4.2,3.7,9.1,3.7,14.5
	C578.9,46.5,577.7,51.3,575.2,55.6z"/>
<g>
</g>
<g>
</g>
<g>
</g>
<g>
</g>
<g>
</g>
<g>
</g>
</svg>
